# xmcd
#
# Track frame offsets:
# 150
# 16779
# 37844
# 65719
# 94863
#
# Disc length: 1618 seconds
#
#
# Revision: 0
# Processed by: cddbd v1.5.2PL0 Copyright (c) Steve Scherf et al.
# Submitted via: FreeRIP 2.945 
#
DISCID=34065005
DTITLE=Ahab Seamus - Ahab Seamus
DYEAR=2001
DGENRE=Blues
TTITLE0=what you saw
TTITLE1=saving ophelia
TTITLE2=where's celie
TTITLE3=your way down
TTITLE4=only a test
EXTD=
EXTT0=
EXTT1=
EXTT2=
EXTT3=
EXTT4=
PLAYORDER=
